<?xml version="1.0" encoding="UTF-8" standalone="no"?>
<svg
   xmlns:dc="http://purl.org/dc/elements/1.1/"
   xmlns:cc="http://creativecommons.org/ns#"
   xmlns:rdf="http://www.w3.org/1999/02/22-rdf-syntax-ns#"
   xmlns:svg="http://www.w3.org/2000/svg"
   xmlns="http://www.w3.org/2000/svg"
   id="svg57"
   version="1.1"
   viewBox="0 0 60.02401 46.668667"
   height="46.668667mm"
   width="60.02401mm">
  <defs
     id="defs51" />
  <metadata
     id="metadata54">
    <rdf:RDF>
      <cc:Work
         rdf:about="">
        <dc:format>image/svg+xml</dc:format>
        <dc:type
           rdf:resource="http://purl.org/dc/dcmitype/StillImage" />
        <dc:title></dc:title>
      </cc:Work>
    </rdf:RDF>
  </metadata>
  <g
     transform="translate(-3.2498905,-1.5231071)"
     id="layer1">
    <path
       id="path3788-7"
       d="m 60.857566,48.190177 c -0.44058,-0.0172 -1.15822,-0.10728 -1.59479,-0.20015 -0.53602,-0.11401 -0.81965,-0.34972 -0.87351,-0.72595 -0.0439,-0.30642 0.4204,-0.98362 0.79169,-1.42487 0.5109,-0.60717 0.4787,-1.03462 0.4787,-1.96132 0,-1.06339 0.14265,-1.53021 -0.78816,-2.54001 -0.83894,-0.91014 -1.7981,-1.16617 -3.39252,-1.72852 -1.12036,-0.39516 -2.54793,-0.95379 -3.17236,-1.24141 -0.73484,-0.33846 -1.79801,-1.28275 -3.01392,-2.67689 -1.03322,-1.18468 -2.35478,-2.54091 -2.9368,-3.01385 -0.85423,-0.69415 -1.29327,-0.85943 -2.27775,-0.8575 -0.67074,10e-4 -2.46969,0.28734 -3.99765,0.63562 -1.52798,0.34827 -3.56447,0.93064 -4.52555,1.29416 -0.96109,0.36352 -2.59124,0.79187 -3.62256,0.95189 -1.03133,0.16001 -2.94947,0.29093 -4.26254,0.29093 -2.2049,0 -2.4118,0.0455 -2.70647,0.59531 -0.19092,0.35622 -0.3426,1.95874 -0.37767,3.99002 -0.0538,3.11703 -0.10423,3.42666 -0.61629,3.78532 -0.33009,0.2312 -0.55915,0.68142 -0.56129,1.10321 -0.002,0.39193 -0.0721,0.96799 -0.15589,1.28013 -0.1042,0.38837 -0.50112,0.66521 -1.25731,0.87693 -0.60777,0.17016 -1.69741,0.27196 -2.42142,0.22622 -1.02641,-0.0649 -1.33664,-0.18978 -1.40834,-0.56713 -0.0506,-0.26617 -0.0177,-0.78003 0.0732,-1.14191 0.10476,-0.41739 0.49368,-0.79524 1.06367,-1.0334 0.4942,-0.20649 0.98347,-0.51285 1.08727,-0.68082 0.10381,-0.16796 0.17293,-1.74734 0.15361,-3.50973 -0.0314,-2.85925 -0.1229,-3.44937 -0.85007,-5.47929 -0.57122,-1.59462 -1.24332,-2.82102 -2.24746,-4.10104 -0.7879,-1.00436 -1.60721,-2.13593 -1.8207,-2.51461 -0.21348,-0.37867 -0.57419,-1.86695 -0.80156,-3.30729 -0.22738,-1.44034 -0.53952,-3.24387 -0.69365,-4.00786 -0.27985,-1.38712 -0.28166,-1.38906 -1.30061,-1.38906 -0.79756,0 -1.14574,-0.15888 -1.5945,-0.7276 -0.45014,-0.57047 -0.5432,-0.95617 -0.43089,-1.78594 l 0.14325,-1.05833 -2.4838003,-0.003 c -2.08774,-0.003 -2.59961,-0.0898 -3.21,-0.54552 -0.3994,-0.29819 -0.95715,-0.85153 -1.23945,-1.22964 -0.35661,-0.47764 -0.5231,-1.15457 -0.54551,-2.21795 0,0 -0.46837,-1.26558 -0.0323,-1.53049 0.74366,-0.4517199 2.36301,-0.7380199 2.36301,-0.7380199 1.29965,-0.40591 2.46374,-0.88875 2.58687,-1.07299 0.12312,-0.18424 0.28947,-0.8964 0.36966,-1.26255 0.0802,-0.36616 0.52345,-0.65094 0.98501,-0.95287 0.4615603,-0.30194 1.4609403,-0.63109 2.2208403,-0.73146 0.7599,-0.10036 2.18865,-0.10182 3.175,-0.003 1.79336,0.17922 1.79336,0.17922 3.88907,2.32323 1.15263,1.17921 2.82836,3.2750999 3.72384,4.6575499 0.89547,1.38245 2.07683,2.85547 2.62523,3.27337 0.54841,0.4179 2.44455,1.29091 4.21366,1.94002 1.76911,0.64911 3.69281,1.28538 4.27489,1.41393 0.58209,0.12855 3.67772,0.54526 6.87917,0.92601 3.20147,0.38076 6.29325,0.65273 6.87066,0.60438 0.83861,-0.0702 1.16531,-0.2599 1.62389,-0.94279 0.3234,-0.48159 0.76466,-1.86799 1.01052,-3.175 0.24005,-1.27607 0.75631,-4.75498 0.90722,-7.8109199 0.1556,-3.15073 0.21424,-5.90807 0.39268,-6.28316 0.17306,-0.3638 0.4788,-0.66146 0.67942,-0.66146 0.20061,0 0.58483,0.29766 0.85382,0.66146 0.26898,0.3638 0.23831,1.30279 0.38521,2.08663 0.14691,0.78385 0.24549,2.48844 0.24576,3.81464 2.6e-4,1.3262 0.0798,5.3306599 -0.30329,8.8721099 -0.69653,6.43901 -0.69653,6.43901 -0.12943,7.14375 0.31191,0.38761 0.97812,1.30005 1.48046,2.02766 0.73745,1.06812 0.99499,1.80703 1.33715,3.83646 0.23309,1.38244 0.55471,2.96307 0.71471,3.5125 0.17241,0.59203 0.749,1.42122 1.41543,2.03551 0.61848,0.57009 1.83389,1.39463 2.70092,1.8323 0.86702,0.43768 2.21824,1.57909 2.30931,1.81643 0.15656,0.41189 -0.22717,1.73088 -0.22717,4.03906 0,4.0368 -0.39334,4.47422 -0.9808,4.67403 -0.37383,0.12715 -0.7303,0.33233 -1.17085,0.31511 z"
       style="fill:#000000;stroke-width:0.26458332" />
  </g>
</svg>
